HIERARCHY
ROOT Hips
{
  OFFSET 8.572 92.4216 -23.3009
  CHANNELS 6 Xposition Yposition Zposition Zrotation Xrotation Yrotation
  JOINT ToSpine
  {
    OFFSET -2.69724 7.43032 -0.144315
    CHANNELS 3 Zrotation Xrotation Yrotation
    JOINT Spine
    {
      OFFSET -0.0310711 10.7595 1.96963
      CHANNELS 3 Zrotation Xrotation Yrotation
      JOINT Spine1
      {
        OFFSET 13.1342 3.43533 0.764692
        CHANNELS 3 Zrotation Xrotation Yrotation
        JOINT Neck
        {
          OFFSET 29.8703 7.82586 -0.130764
          CHANNELS 3 Zrotation Xrotation Yrotation
          JOINT Head
          {
            OFFSET 9.52751 0.295786 -0.907742
            CHANNELS 3 Zrotation Xrotation Yrotation
            End Site
            {
              OFFSET 16.4037 0.713936 2.7358
            }
          }
        }
        JOINT LeftShoulder
        {
          OFFSET 27.5574 4.95586 2.47156
          CHANNELS 3 Zrotation Xrotation Yrotation
          JOINT LeftArm
          {
            OFFSET 1.20734 -0.998971 20.1238
            CHANNELS 3 Zrotation Xrotation Yrotation
            JOINT LeftForeArm
            {
              OFFSET 26.8049 -0.0536703 -0.155908
              CHANNELS 3 Zrotation Xrotation Yrotation
              JOINT LeftHand
              {
                OFFSET 26.6817 0 0.320147
                CHANNELS 3 Zrotation Xrotation Yrotation
                End Site
                {
                  OFFSET 18.6119 0 0.382219
                }
              }
            }
          }
        }
        JOINT RightShoulder
        {
          OFFSET 27.5927 4.71444 -2.65209
          CHANNELS 3 Zrotation Xrotation Yrotation
          JOINT RightArm
          {
            OFFSET 2.83739 -1.17114 -18.7564
            CHANNELS 3 Zrotation Xrotation Yrotation
            JOINT RightForeArm
            {
              OFFSET 28.839 -0.0548439 1.22491
              CHANNELS 3 Zrotation Xrotation Yrotation
              JOINT RightHand
              {
                OFFSET 26.5114 0 -0.101894
                CHANNELS 3 Zrotation Xrotation Yrotation
                End Site
                {
                  OFFSET 18.2168 0 0
                }
              }
            }
          }
        }
      }
    }
  }
  JOINT LeftUpLeg
  {
    OFFSET -4.76168 -1.9167 -10.2353
    CHANNELS 3 Zrotation Xrotation Yrotation
    JOINT LeftLeg
    {
      OFFSET 2.55951 -42.0585 -8.02213
      CHANNELS 3 Zrotation Xrotation Yrotation
      JOINT LeftFoot
      {
        OFFSET 3.16357 -42.5282 -3.95426
        CHANNELS 3 Zrotation Xrotation Yrotation
        JOINT LeftToeBase
        {
          OFFSET 0.346054 -6.02161 12.8035
          CHANNELS 3 Zrotation Xrotation Yrotation
          End Site
          {
            OFFSET 0.134235 -1.35082 5.13018
          }
        }
      }
    }
  }
  JOINT RightUpLeg
  {
    OFFSET -4.94151 -1.41743 10.6446
    CHANNELS 3 Zrotation Xrotation Yrotation
    JOINT RightLeg
    {
      OFFSET -2.56294 -42.0364 -7.94377
      CHANNELS 3 Zrotation Xrotation Yrotation
      JOINT RightFoot
      {
        OFFSET -3.0952 -42.555 -4.02241
        CHANNELS 3 Zrotation Xrotation Yrotation
        JOINT RightToeBase
        {
          OFFSET -0.0828122 -6.13587 12.8035
          CHANNELS 3 Zrotation Xrotation Yrotation
          End Site
          {
            OFFSET -0.131328 -1.35082 5.13018
          }
        }
      }
    }
  }
}
MOTION
Frames:	18
Frame Time:	0.0333333
13.5122 87.1287 -26.7216 12.0694 -79.3508 -77.3868 -70.1915 0 88.8779 63.7331 61.0098 7.68137 11.7742 9.5355 4.22378 -124.362 23.4317 169.393 -166.827 64.4908 -167.962 -1.9055 -22.8423 -33.6362 -105.678 41.1102 -120.89 22.4031 3.57441 -80.7577 0.420956 0.000575645 0.358661 -1.61616 5.29592 45.191 -73.0901 -24.8223 93.8979 13.7165 2.1713 98.5334 0.58676 0.000330853 0.0646655 -61.6162 16.7785 121.447 -3.98711 59.2445 3.98611 -0.90067 -26.3429 -2.34694 7.94927 -17.2418 18.5416 -29.6413 8.95744 107.348 3.62778 45.1008 12.5946 0.564589 2.70217 -0.150141 1.08065 -9.82817 1.33351 
13.4754 87.9115 -26.3128 34.2572 -76.6599 -54.7316 -70.1915 0 88.8779 64.959 62.2165 8.37445 11.2583 10.692 4.79095 -122.366 24.2731 167.534 -165.329 65.8862 -168.669 -1.59573 -22.2263 -32.2036 -99.2812 41.7803 -124.842 23.4685 2.5633 -83.4608 0.420956 0.000575645 0.358661 -1.62124 5.23013 45.6549 -78.2752 -22.3442 93.9185 12.8719 2.13053 98.9224 0.58676 0.000330853 0.0646655 -60.7674 16.099 118.837 -4.09296 57.4334 1.19678 -0.410679 -25.5383 -2.21826 7.73225 -16.922 17.5845 -30.4358 5.94233 106.476 3.43971 44.3622 11.6588 0.916705 3.05862 -0.233238 1.29053 -11.4242 1.50686 
13.3649 88.7837 -25.8514 48.2963 -72.5904 -40.2265 -70.1915 0 88.8779 66.5888 63.3352 8.38201 10.4942 11.5754 5.84198 -120.808 25.0264 166.931 -165.01 66.885 -167.849 -1.30744 -21.3638 -31.3125 -94.25 41.2388 -127.855 23.7659 1.45417 -86.0594 0.420956 0.000575645 0.358661 -1.67248 5.55913 44.7244 -83.9535 -21.4382 94.3141 13.2918 2.10842 98.5551 0.58676 0.000330853 0.0646655 -59.9258 14.7757 115.329 -3.98531 55.1675 -0.974487 -0.455124 -24.5417 -2.13377 7.52895 -16.6111 16.6534 -31.4856 2.45873 104.59 3.35399 43.4181 11.8042 1.82614 3.13717 -0.383425 1.47297 -12.1043 -0.0280299 
13.1914 89.7656 -25.3778 56.8541 -67.7875 -31.3172 -70.1915 0 88.8779 67.7466 64.3744 8.79057 9.97303 12.5235 6.38466 -120.525 25.5645 165.888 -164.662 67.712 -168.668 -1.01229 -20.6001 -29.9846 -90.4015 40.0487 -130.121 22.9897 0.389268 -88.1255 0.420956 0.000575645 0.358661 -1.61777 5.63251 43.4035 -89.9482 -20.6158 95.3145 13.3315 2.07194 98.3847 0.58676 0.000330853 0.0646655 -59.4123 13.2486 111.97 -3.59006 52.221 -2.28606 0.371973 -22.7013 -1.90563 7.28188 -16.1717 14.8172 -32.8792 -1.48711 101.612 3.19151 42.094 11.4763 1.81681 3.63991 -0.428274 1.61748 -13.2162 -0.164626 
12.9456 90.7412 -24.7368 61.3207 -62.8265 -26.1925 -70.1915 0 88.8779 67.4503 65.1308 11.2332 9.92691 13.6082 6.18459 -119.996 25.7539 164.376 -163.711 68.3581 -169.33 -0.696152 -19.684 -28.4808 -86.9972 38.8777 -132.208 22.6557 0.0553312 -89.6685 0.420956 0.000575645 0.358661 -1.5855 5.58092 43.1194 -96.4776 -18.14 95.958 13.2319 1.97869 98.0721 0.58676 0.000330853 0.0646655 -58.9006 12.2374 108.879 -3.38396 49.1739 -3.9273 0.62626 -21.2229 -1.7676 6.72695 -15.2904 13.1287 -34.4347 -4.84173 98.0445 2.93564 40.2205 10.8499 1.67178 3.78521 -0.417699 1.60219 -13.3572 0.626207 
12.658 91.6152 -24.0976 64.4736 -58.3189 -22.8381 -70.1915 0 88.8779 67.2217 66.3079 12.5739 9.40281 14.8119 6.98262 -119.694 26.1024 163.173 -162.02 69.0148 -170.848 -0.484313 -18.9854 -27.4865 -84.491 37.4991 -133.609 22.3333 -0.649227 -90.5105 0.420956 0.000575645 0.358661 -1.64909 5.8457 42.8416 -102.726 -14.9764 96.1341 13.0595 1.91082 97.8953 0.58676 0.000330853 0.0646655 -58.9003 10.8163 105.983 -2.92121 45.9534 -4.19838 -0.405093 -20.4404 -1.76677 5.75732 -13.3962 9.50996 -36.2005 -7.81927 94.9628 2.82502 38.7068 10.8026 1.05279 3.85766 -0.322866 1.73735 -13.9095 -0.961169 
12.2799 92.4486 -23.3569 66.6534 -53.9114 -20.2978 -70.1915 0 88.8779 68.2595 67.2014 13.0822 8.25875 15.7807 6.91252 -119.181 26.305 162.367 -161.738 69.4908 -171.04 -0.321436 -18.4653 -26.5635 -82.8655 36.9077 -134.067 22.7114 -0.945216 -91.6221 0.420956 0.000575645 0.358661 -1.72553 6.38423 41.6351 -108.822 -13.2051 95.9069 13.8289 1.85758 97.2262 0.58676 0.000330853 0.0646655 -58.8338 9.59152 102.933 -2.85396 42.8397 -6.10541 0.162619 -17.5716 -1.49426 6.10328 -14.1526 11.1837 -38.1045 -10.2247 92.1975 2.5151 37.0299 9.16968 1.40577 3.48488 -0.348237 1.58098 -13.0979 0.285441 
11.8515 93.0452 -22.5199 68.2237 -49.5926 -18.2094 -70.1915 0 88.8779 67.2394 67.6681 15.2905 8.35558 16.5424 6.88033 -119.724 26.8913 162.486 -164.214 70.0566 -168.77 -0.169933 -17.8959 -25.7683 -81.5153 35.957 -134.992 22.4746 -1.24957 -92.3004 0.420956 0.000575645 0.358661 -1.52538 6.20217 39.2195 -114.05 -12.7058 96.7214 14.1964 1.58385 95.9704 0.58676 0.000330853 0.0646655 -58.4815 9.33859 100.859 -2.64105 40.6198 -6.43598 -0.855863 -16.988 -1.47033 4.95268 -11.7681 7.53805 -39.7928 -12.3147 88.6058 2.28736 35.9739 8.27404 1.08456 2.96515 -0.2515 1.52137 -13.0361 1.34212 
11.2676 93.5388 -21.6644 69.4697 -45.7741 -16.3354 -70.1915 0 88.8779 67.8054 68.0105 16.0253 7.97931 17.0605 6.36593 -120.137 27.0895 162.713 -165.548 70.172 -167.838 -0.0755261 -17.5939 -25.0951 -80.4947 35.5453 -135.346 21.3486 -1.42483 -92.914 0.420956 0.000575645 0.358661 -1.50167 6.43864 37.9439 -118.768 -11.5443 97.4555 16.2678 1.35949 94.4012 0.58676 0.000330853 0.0646655 -57.9368 9.71361 99.5954 -2.73196 39.0134 -8.51071 -0.528848 -14.5147 -1.24948 5.45435 -12.723 8.03995 -41.4699 -13.4279 86.2311 1.98825 35.2348 7.45912 1.24654 2.17971 -0.208542 1.49283 -12.5219 0.583193 
10.6121 93.8719 -20.8699 70.3112 -42.1909 -14.5788 -70.1915 0 88.8779 68.8817 68.1503 16.065 7.55317 17.2646 6.04205 -120.166 27.0392 162.357 -164.448 70.1973 -168.868 0.0016621 -17.3084 -24.5788 -79.6116 35.6528 -135.558 22.2721 -1.70463 -93.4181 0.420956 0.000575645 0.358661 -1.38889 6.34493 36.5123 -122.567 -10.968 98.5072 18.3994 0.967057 92.7261 0.58676 0.000330853 0.0646655 -56.7226 10.9204 99.324 -2.85696 38.4172 -10.2613 -0.210968 -12.437 -1.07257 5.73669 -13.1121 7.04497 -42.8365 -14.1876 83.6125 1.75747 34.7556 6.33414 0.891543 1.61088 -0.10757 1.42338 -12.3273 1.35417 
9.95052 94.0637 -20.2359 71.0579 -38.8747 -12.8231 -70.1915 0 88.8779 69.6302 68.147 16.2238 7.54237 17.2989 5.97586 -119.992 27.2515 161.988 -165.78 70.5634 -167.414 0.0188384 -17.1576 -24.6638 -79.0015 36.1842 -135.873 22.2699 -1.92778 -93.9569 0.420956 0.000575645 0.358661 -1.40054 6.73566 35.3186 -126.278 -10.2471 98.8966 20.5265 0.591664 91.1047 0.58676 0.000330853 0.0646655 -54.9087 12.071 98.7885 -3.0308 38.9398 -11.6535 -1.18974 -11.6617 -0.983978 5.38124 -12.488 7.12487 -44.0583 -14.986 80.43 1.80737 34.4977 6.10716 -0.16476 1.62454 0.043867 1.5813 -13.3915 1.1322 
9.32702 94.2072 -19.7821 71.8708 -35.8496 -11.0095 -70.1915 0 88.8779 71.1939 68.2741 15.3642 7.37979 17.3243 6.07474 -119.24 27.2092 160.942 -166.195 70.9272 -166.63 -0.0375965 -17.5001 -24.7426 -77.4029 38.19 -136.852 23.9928 -2.08525 -93.9332 0.420956 0.000575645 0.358661 -1.35797 6.81243 34.427 -129.702 -9.50729 99.4614 22.4673 -0.143751 89.8392 0.58676 0.000330853 0.0646655 -53.103 13.155 98.3985 -3.23853 39.8063 -13.1677 -1.40256 -10.5451 -0.874368 5.06999 -12.0858 8.28799 -45.3726 -15.4337 78.0626 1.91615 34.2564 5.34376 0.398595 1.58681 -0.0346176 1.63807 -13.7199 0.85014 
8.71869 94.272 -19.5499 72.2841 -33.307 -9.5451 -70.1915 0 88.8779 71.8404 68.2805 15.662 7.61304 17.424 5.76 -118.275 27.0128 159.697 -166.707 71.2467 -165.364 -0.12445 -18.0689 -24.7627 -76.4064 38.0426 -138.01 23.3652 -1.80667 -93.4419 0.420956 0.000575645 0.358661 -1.32546 6.707 34.2829 -132.528 -8.32559 100.518 23.5486 -0.625952 88.1718 0.58676 0.000330853 0.0646655 -51.1534 14.018 98.027 -3.31343 40.6728 -13.1008 -1.41179 -10.0394 -0.826651 4.84846 -11.5944 7.51891 -46.0742 -15.683 76.4457 2.11386 34.3283 4.19186 1.01492 1.36761 -0.103892 1.53595 -13.2734 1.71363 
8.17403 94.2732 -19.4404 72.8065 -31.4533 -8.43221 -70.1915 0 88.8779 72.9005 68.442 14.7485 7.69937 17.4486 5.85302 -117.433 26.8532 158.14 -166.509 71.6939 -164.902 -0.146765 -18.253 -24.6897 -75.099 38.8795 -139.448 22.4492 -1.73435 -93.4544 0.420956 0.000575645 0.358661 -1.30463 6.60314 34.31 -134.606 -7.80757 101.127 24.2842 -1.28381 86.9591 0.58676 0.000330853 0.0646655 -50.2407 14.2615 97.4263 -3.31763 40.7071 -13.127 -1.46936 -10.1976 -0.838347 4.2413 -10.5372 7.65761 -46.7771 -15.8569 75.4647 2.3002 34.4085 4.16158 1.40654 0.886125 -0.117659 1.60718 -13.1537 0.132534 
7.66757 94.1106 -19.4607 73.012 -30.1435 -7.51605 -70.1915 0 88.8779 73.1598 68.504 14.5066 7.85104 17.4021 6.07644 -116.639 26.4555 157.019 -166.455 71.8015 -164.008 -0.142421 -18.3056 -24.5265 -73.5192 39.7459 -141.001 23.2795 -1.65478 -93.1102 0.420956 0.000575645 0.358661 -1.30927 6.63965 34.2598 -136.753 -8.08778 101.776 25.8637 -1.90272 85.8841 0.58676 0.000330853 0.0646655 -49.7222 14.0212 95.526 -3.22589 40.1459 -12.6634 -1.36043 -11.2217 -0.940513 3.28125 -9.16017 9.4417 -47.3601 -15.5964 74.7692 2.52531 34.058 4.71479 0.24953 0.278337 0.0919156 1.87252 -14.0398 -4.16138 
7.2299 93.888 -19.5178 72.9113 -29.3628 -7.1718 -70.1915 0 88.8779 72.1713 68.5504 15.2026 7.82612 17.4115 6.3608 -115.713 26.045 156.993 -168.038 71.5737 -161.317 -0.207245 -18.5518 -24.8924 -72.4998 39.9727 -141.875 23.8418 -1.52086 -92.7136 0.420956 0.000575645 0.358661 -1.32618 6.73178 34.2149 -138.118 -8.61495 101.694 25.8616 -2.2976 85.0779 0.58676 0.000330853 0.0646655 -49.4309 13.4634 93.456 -3.11345 39.5523 -12.0075 -2.44825 -13.0969 -1.0981 2.11165 -7.51741 11.1057 -47.5814 -15.3059 74.3777 2.44684 33.5064 3.70971 -0.381822 -1.68064 0.320658 1.87231 -13.1623 -5.42565 
6.74213 93.4782 -19.8074 73.1386 -29.1054 -6.81445 -70.1915 0 88.8779 72.3221 68.842 14.2616 7.78898 17.4955 7.00538 -115.209 26.1659 156.06 -169.625 72.0609 -159.803 -0.250827 -18.6133 -25.3337 -71.7781 39.8604 -142.826 24.1052 -1.35506 -92.3093 0.420956 0.000575645 0.358661 -1.30388 6.62459 34.2169 -139.286 -9.74448 101.404 26.2488 -2.53927 84.6718 0.58676 0.000330853 0.0646655 -48.3021 13.9721 93.3182 -3.35258 41.2878 -12.7999 -3.37338 -13.5983 -1.142 2.47859 -8.18223 11.3669 -47.1693 -15.1471 74.1624 2.48761 34.174 3.74976 -3.555 -1.74265 0.68663 2.07916 -14.829 -8.35809 
6.25051 93.1073 -20.1106 73.6972 -29.0853 -6.53814 -70.1915 0 88.8779 74.2104 69.4572 11.2823 7.2902 17.7696 7.53502 -114.744 26.0217 154.488 -167.768 72.5451 -161.777 -0.311288 -18.8922 -25.5452 -71.172 39.4839 -143.251 24.4226 -1.11289 -91.7188 0.420956 0.000575645 0.358661 -1.28332 6.2564 35.183 -140.042 -10.2298 101.186 26.3458 -2.49356 84.7787 0.58676 0.000330853 0.0646655 -47.2507 14.0336 92.8458 -3.59024 43.3227 -13.0314 -3.06049 -14.2311 -1.21369 2.01169 -7.5796 12.1927 -46.6231 -14.9324 74.9724 2.18229 35.3869 2.78312 -4.52074 -3.0763 0.850599 2.03104 -13.886 -8.22321 
